ffmpeg started on 2026-01-20 at 14:24:08
Report written to "D:\Convert\FFMetrics\reports\ssim_report-6.txt"
Log level: 32
Command line:
ffmpeg -hide_banner -nostdin -r 24000/1001 -i "F:\\Convert\\files\\[DC] Make Heroine ga Oosugiru - 07_Telegram_HEVC(210).mkv" -r 24000/1001 -i "F:\\Convert\\files\\[DC] Make Heroine ga Oosugiru - 07_Telegram.mp4" -lavfi "[0:v]settb=AVTB,setpts=PTS-STARTPTS,format=pix_fmts=yuv420p10le,fps=24000/1001,scale=1920:1080:flags=lanczos:param0=3:out_range=limited:out_color_matrix=bt709:out_chroma_loc=left,setsar=1/1,setdar=(1920/1080)*(1/1),colorspace=format=yuv420p10:range=tv:primaries=bt709:trc=bt709:space=bt709:fast=0[main];[1:v]settb=AVTB,setpts=PTS-STARTPTS,format=pix_fmts=yuv420p,fps=24000/1001,scale=1920:1080:flags=lanczos:param0=3:out_range=limited:out_color_matrix=bt709:out_chroma_loc=left,setsar=1.000,setdar=1.778,colorspace=format=yuv420p:range=tv:primaries=bt709:trc=bt709:space=bt709:fast=0[ref];[main][ref]ssim=eof_action=endall:stats_file='D\\:/Convert/FFMetrics/logs/ssim_logfile-6.txt'" -f null -
Input #0, matroska,webm, from 'F:\Convert\files\[DC] Make Heroine ga Oosugiru - 07_Telegram_HEVC(210).mkv':
  Metadata:
    COMPATIBLE_BRANDS: isomiso2avc1mp41
    MAJOR_BRAND     : isom
    MINOR_VERSION   : 512
    ENCODER         : Lavf61.7.100
  Duration: 00:24:06.79, start: -0.021000, bitrate: 896 kb/s
  Stream #0:0: Video: hevc (Main 10), yuv420p10le(tv, bt709, progressive), 1920x1080 [SAR 1:1 DAR 16:9], 23.98 fps, 23.98 tbr, 1k tbn (default)
      Metadata:
        HANDLER_NAME    : VideoHandler
        VENDOR_ID       : [0][0][0][0]
        ENCODER         : Lavc61.19.100 libx265
        BPS             : 699525
        DURATION        : 00:24:06.569708333
        NUMBER_OF_FRAMES: 34683
        NUMBER_OF_BYTES : 126488962
        _STATISTICS_WRITING_APP: mkvpropedit v94.0 ('Initiate') 64-bit
        _STATISTICS_WRITING_DATE_UTC: 2026-01-20 09:57:55
        _STATISTICS_TAGS: BPS DURATION NUMBER_OF_FRAMES NUMBER_OF_BYTES
  Stream #0:1: Audio: aac (LC), 48000 Hz, stereo, fltp (default)
      Metadata:
        HANDLER_NAME    : SoundHandler
        VENDOR_ID       : [0][0][0][0]
        ENCODER         : Lavc61.19.100 aac
        BPS             : 193194
        DURATION        : 00:24:06.784000000
        NUMBER_OF_FRAMES: 67819
        NUMBER_OF_BYTES : 34938755
        _STATISTICS_WRITING_APP: mkvpropedit v94.0 ('Initiate') 64-bit
        _STATISTICS_WRITING_DATE_UTC: 2026-01-20 09:57:55
        _STATISTICS_TAGS: BPS DURATION NUMBER_OF_FRAMES NUMBER_OF_BYTES
Input #1, mov,mp4,m4a,3gp,3g2,mj2, from 'F:\Convert\files\[DC] Make Heroine ga Oosugiru - 07_Telegram.mp4':
  Metadata:
    major_brand     : isom
    minor_version   : 512
    compatible_brands: isomiso2avc1mp41
    encoder         : Lavf60.16.100
  Duration: 00:24:06.74, start: 0.000000, bitrate: 3764 kb/s
  Stream #1:0[0x1](und): Video: h264 (High) (avc1 / 0x31637661), yuv420p(tv, bt709, progressive), 1920x1080 [SAR 1:1 DAR 16:9], 3616 kb/s, 23.98 fps, 23.98 tbr, 24k tbn (default)
      Metadata:
        handler_name    : VideoHandler
        vendor_id       : [0][0][0][0]
        encoder         : Lavc60.31.102 h264_qsv
  Stream #1:1[0x2](und): Audio: aac (HE-AACv2) (mp4a / 0x6134706D), 48000 Hz, stereo, fltp, 144 kb/s (default)
      Metadata:
        handler_name    : SoundHandler
        vendor_id       : [0][0][0][0]
Stream mapping:
  Stream #0:0 (hevc) -> settb:default
  Stream #1:0 (h264) -> settb:default
  ssim:default -> Stream #0:0 (wrapped_avframe)
  Stream #0:1 -> #0:1 (aac (native) -> pcm_s16le (native))
Output #0, null, to 'pipe:':
  Metadata:
    COMPATIBLE_BRANDS: isomiso2avc1mp41
    MAJOR_BRAND     : isom
    MINOR_VERSION   : 512
    encoder         : Lavf61.7.100
  Stream #0:0: Video: wrapped_avframe, yuv420p10le(tv, bt709, progressive), 1920x1080 [SAR 1:1 DAR 16:9], q=2-31, 200 kb/s, 23.98 fps, 23.98 tbn
      Metadata:
        encoder         : Lavc61.19.100 wrapped_avframe
  Stream #0:1: Audio: pcm_s16le, 48000 Hz, stereo, s16, 1536 kb/s (default)
      Metadata:
        HANDLER_NAME    : SoundHandler
        VENDOR_ID       : [0][0][0][0]
        _STATISTICS_TAGS: BPS DURATION NUMBER_OF_FRAMES NUMBER_OF_BYTES
        BPS             : 193194
        DURATION        : 00:24:06.784000000
        NUMBER_OF_FRAMES: 67819
        NUMBER_OF_BYTES : 34938755
        _STATISTICS_WRITING_APP: mkvpropedit v94.0 ('Initiate') 64-bit
        _STATISTICS_WRITING_DATE_UTC: 2026-01-20 09:57:55
        encoder         : Lavc61.19.100 pcm_s16le
frame=  135 fps=0.0 q=-0.0 size=N/A time=00:00:05.63 bitrate=N/A speed=10.9x    frame=  317 fps=308 q=-0.0 size=N/A time=00:00:13.22 bitrate=N/A speed=12.9x    frame=  527 fps=338 q=-0.0 size=N/A time=00:00:21.98 bitrate=N/A speed=14.1x    frame=  725 fps=351 q=-0.0 size=N/A time=00:00:30.23 bitrate=N/A speed=14.6x    frame=  904 fps=351 q=-0.0 size=N/A time=00:00:37.70 bitrate=N/A speed=14.6x    frame= 1066 fps=343 q=-0.0 size=N/A time=00:00:44.46 bitrate=N/A speed=14.3x    frame= 1229 fps=340 q=-0.0 size=N/A time=00:00:51.25 bitrate=N/A speed=14.2x    frame= 1395 fps=338 q=-0.0 size=N/A time=00:00:58.18 bitrate=N/A speed=14.1x    frame= 1546 fps=333 q=-0.0 size=N/A time=00:01:04.48 bitrate=N/A speed=13.9x    frame= 1705 fps=330 q=-0.0 size=N/A time=00:01:11.11 bitrate=N/A speed=13.8x    frame= 1868 fps=329 q=-0.0 size=N/A time=00:01:17.91 bitrate=N/A speed=13.7x    frame= 2034 fps=329 q=-0.0 size=N/A time=00:01:24.83 bitrate=N/A speed=13.7x    frame= 2146 fps=320 q=-0.0 size=N/A time=00:01:29.50 bitrate=N/A speed=13.3x    frame= 2308 fps=319 q=-0.0 size=N/A time=00:01:36.26 bitrate=N/A speed=13.3x    frame= 2453 fps=317 q=-0.0 size=N/A time=00:01:42.31 bitrate=N/A speed=13.2x    frame= 2599 fps=315 q=-0.0 size=N/A time=00:01:48.39 bitrate=N/A speed=13.1x    frame= 2783 fps=317 q=-0.0 size=N/A time=00:01:56.07 bitrate=N/A speed=13.2x    frame= 2963 fps=319 q=-0.0 size=N/A time=00:02:03.58 bitrate=N/A speed=13.3x    frame= 3155 fps=322 q=-0.0 size=N/A time=00:02:11.58 bitrate=N/A speed=13.4x    frame= 3353 fps=325 q=-0.0 size=N/A time=00:02:19.84 bitrate=N/A speed=13.6x    frame= 3552 fps=328 q=-0.0 size=N/A time=00:02:28.14 bitrate=N/A speed=13.7x    frame= 3750 fps=331 q=-0.0 size=N/A time=00:02:36.40 bitrate=N/A speed=13.8x    frame= 3952 fps=333 q=-0.0 size=N/A time=00:02:44.83 bitrate=N/A speed=13.9x    frame= 4153 fps=335 q=-0.0 size=N/A time=00:02:53.21 bitrate=N/A speed=  14x    frame= 4348 fps=337 q=-0.0 size=N/A time=00:03:01.34 bitrate=N/A speed=14.1x    frame= 4546 fps=339 q=-0.0 size=N/A time=00:03:09.60 bitrate=N/A speed=14.1x    frame= 4749 fps=341 q=-0.0 size=N/A time=00:03:18.07 bitrate=N/A speed=14.2x    frame= 4944 fps=342 q=-0.0 size=N/A time=00:03:26.20 bitrate=N/A speed=14.3x    frame= 5140 fps=344 q=-0.0 size=N/A time=00:03:34.38 bitrate=N/A speed=14.3x    frame= 5333 fps=345 q=-0.0 size=N/A time=00:03:42.43 bitrate=N/A speed=14.4x    frame= 5535 fps=346 q=-0.0 size=N/A time=00:03:50.85 bitrate=N/A speed=14.4x    frame= 5732 fps=347 q=-0.0 size=N/A time=00:03:59.07 bitrate=N/A speed=14.5x    frame= 5933 fps=349 q=-0.0 size=N/A time=00:04:07.45 bitrate=N/A speed=14.5x    frame= 6125 fps=349 q=-0.0 size=N/A time=00:04:15.46 bitrate=N/A speed=14.6x    frame= 6331 fps=351 q=-0.0 size=N/A time=00:04:24.05 bitrate=N/A speed=14.6x    frame= 6526 fps=351 q=-0.0 size=N/A time=00:04:32.18 bitrate=N/A speed=14.7x    frame= 6726 fps=353 q=-0.0 size=N/A time=00:04:40.53 bitrate=N/A speed=14.7x    frame= 6923 fps=353 q=-0.0 size=N/A time=00:04:48.74 bitrate=N/A speed=14.7x    frame= 7116 fps=354 q=-0.0 size=N/A time=00:04:56.79 bitrate=N/A speed=14.8x    frame= 7305 fps=354 q=-0.0 size=N/A time=00:05:04.67 bitrate=N/A speed=14.8x    frame= 7492 fps=354 q=-0.0 size=N/A time=00:05:12.47 bitrate=N/A speed=14.8x    frame= 7682 fps=355 q=-0.0 size=N/A time=00:05:20.40 bitrate=N/A speed=14.8x    frame= 7879 fps=355 q=-0.0 size=N/A time=00:05:28.61 bitrate=N/A speed=14.8x    frame= 8063 fps=355 q=-0.0 size=N/A time=00:05:36.29 bitrate=N/A speed=14.8x    frame= 8251 fps=356 q=-0.0 size=N/A time=00:05:44.13 bitrate=N/A speed=14.8x    frame= 8446 fps=356 q=-0.0 size=N/A time=00:05:52.26 bitrate=N/A speed=14.9x    frame= 8642 fps=356 q=-0.0 size=N/A time=00:06:00.44 bitrate=N/A speed=14.9x    frame= 8834 fps=357 q=-0.0 size=N/A time=00:06:08.45 bitrate=N/A speed=14.9x    frame= 9026 fps=357 q=-0.0 size=N/A time=00:06:16.45 bitrate=N/A speed=14.9x    frame= 9225 fps=358 q=-0.0 size=N/A time=00:06:24.75 bitrate=N/A speed=14.9x    frame= 9421 fps=358 q=-0.0 size=N/A time=00:06:32.93 bitrate=N/A speed=14.9x    frame= 9616 fps=359 q=-0.0 size=N/A time=00:06:41.06 bitrate=N/A speed=  15x    frame= 9816 fps=359 q=-0.0 size=N/A time=00:06:49.40 bitrate=N/A speed=  15x    frame=10009 fps=359 q=-0.0 size=N/A time=00:06:57.45 bitrate=N/A speed=  15x    frame=10206 fps=360 q=-0.0 size=N/A time=00:07:05.67 bitrate=N/A speed=  15x    frame=10397 fps=360 q=-0.0 size=N/A time=00:07:13.64 bitrate=N/A speed=  15x    frame=10596 fps=360 q=-0.0 size=N/A time=00:07:21.94 bitrate=N/A speed=  15x    frame=10781 fps=360 q=-0.0 size=N/A time=00:07:29.65 bitrate=N/A speed=  15x    frame=10972 fps=361 q=-0.0 size=N/A time=00:07:37.62 bitrate=N/A speed=  15x    frame=11166 fps=361 q=-0.0 size=N/A time=00:07:45.71 bitrate=N/A speed=  15x    frame=11356 fps=361 q=-0.0 size=N/A time=00:07:53.63 bitrate=N/A speed=15.1x    frame=11554 fps=361 q=-0.0 size=N/A time=00:08:01.89 bitrate=N/A speed=15.1x    frame=11747 fps=362 q=-0.0 size=N/A time=00:08:09.94 bitrate=N/A speed=15.1x    frame=11950 fps=362 q=-0.0 size=N/A time=00:08:18.41 bitrate=N/A speed=15.1x    frame=12143 fps=362 q=-0.0 size=N/A time=00:08:26.46 bitrate=N/A speed=15.1x    frame=12334 fps=362 q=-0.0 size=N/A time=00:08:34.43 bitrate=N/A speed=15.1x    frame=12536 fps=363 q=-0.0 size=N/A time=00:08:42.85 bitrate=N/A speed=15.1x    frame=12723 fps=363 q=-0.0 size=N/A time=00:08:50.65 bitrate=N/A speed=15.1x    frame=12923 fps=363 q=-0.0 size=N/A time=00:08:58.99 bitrate=N/A speed=15.1x    frame=13118 fps=363 q=-0.0 size=N/A time=00:09:07.12 bitrate=N/A speed=15.2x    frame=13306 fps=363 q=-0.0 size=N/A time=00:09:14.97 bitrate=N/A speed=15.2x    frame=13499 fps=364 q=-0.0 size=N/A time=00:09:23.02 bitrate=N/A speed=15.2x    frame=13696 fps=364 q=-0.0 size=N/A time=00:09:31.23 bitrate=N/A speed=15.2x    frame=13891 fps=364 q=-0.0 size=N/A time=00:09:39.37 bitrate=N/A speed=15.2x    frame=14078 fps=364 q=-0.0 size=N/A time=00:09:47.16 bitrate=N/A speed=15.2x    frame=14267 fps=364 q=-0.0 size=N/A time=00:09:55.05 bitrate=N/A speed=15.2x    frame=14461 fps=364 q=-0.0 size=N/A time=00:10:03.14 bitrate=N/A speed=15.2x    frame=14653 fps=364 q=-0.0 size=N/A time=00:10:11.15 bitrate=N/A speed=15.2x    frame=14847 fps=364 q=-0.0 size=N/A time=00:10:19.24 bitrate=N/A speed=15.2x    frame=15042 fps=365 q=-0.0 size=N/A time=00:10:27.37 bitrate=N/A speed=15.2x    frame=15210 fps=364 q=-0.0 size=N/A time=00:10:34.38 bitrate=N/A speed=15.2x    frame=15408 fps=364 q=-0.0 size=N/A time=00:10:42.64 bitrate=N/A speed=15.2x    frame=15603 fps=364 q=-0.0 size=N/A time=00:10:50.77 bitrate=N/A speed=15.2x    frame=15797 fps=365 q=-0.0 size=N/A time=00:10:58.86 bitrate=N/A speed=15.2x    frame=15986 fps=365 q=-0.0 size=N/A time=00:11:06.74 bitrate=N/A speed=15.2x    frame=16185 fps=365 q=-0.0 size=N/A time=00:11:15.04 bitrate=N/A speed=15.2x    frame=16381 fps=365 q=-0.0 size=N/A time=00:11:23.22 bitrate=N/A speed=15.2x    frame=16576 fps=365 q=-0.0 size=N/A time=00:11:31.35 bitrate=N/A speed=15.2x    frame=16771 fps=365 q=-0.0 size=N/A time=00:11:39.49 bitrate=N/A speed=15.2x    frame=16969 fps=365 q=-0.0 size=N/A time=00:11:47.74 bitrate=N/A speed=15.2x    frame=17177 fps=366 q=-0.0 size=N/A time=00:11:56.42 bitrate=N/A speed=15.3x    frame=17358 fps=366 q=-0.0 size=N/A time=00:12:03.97 bitrate=N/A speed=15.3x    frame=17547 fps=366 q=-0.0 size=N/A time=00:12:11.85 bitrate=N/A speed=15.3x    frame=17743 fps=366 q=-0.0 size=N/A time=00:12:20.03 bitrate=N/A speed=15.3x    frame=17940 fps=366 q=-0.0 size=N/A time=00:12:28.24 bitrate=N/A speed=15.3x    frame=18138 fps=366 q=-0.0 size=N/A time=00:12:36.50 bitrate=N/A speed=15.3x    frame=18324 fps=366 q=-0.0 size=N/A time=00:12:44.26 bitrate=N/A speed=15.3x    frame=18516 fps=366 q=-0.0 size=N/A time=00:12:52.27 bitrate=N/A speed=15.3x    frame=18715 fps=366 q=-0.0 size=N/A time=00:13:00.57 bitrate=N/A speed=15.3x    frame=18912 fps=367 q=-0.0 size=N/A time=00:13:08.78 bitrate=N/A speed=15.3x    frame=19110 fps=367 q=-0.0 size=N/A time=00:13:17.04 bitrate=N/A speed=15.3x    frame=19316 fps=367 q=-0.0 size=N/A time=00:13:25.63 bitrate=N/A speed=15.3x    frame=19516 fps=367 q=-0.0 size=N/A time=00:13:33.97 bitrate=N/A speed=15.3x    frame=19704 fps=367 q=-0.0 size=N/A time=00:13:41.82 bitrate=N/A speed=15.3x    frame=19908 fps=367 q=-0.0 size=N/A time=00:13:50.32 bitrate=N/A speed=15.3x    frame=20109 fps=368 q=-0.0 size=N/A time=00:13:58.71 bitrate=N/A speed=15.3x    frame=20300 fps=368 q=-0.0 size=N/A time=00:14:06.67 bitrate=N/A speed=15.3x    frame=20498 fps=368 q=-0.0 size=N/A time=00:14:14.93 bitrate=N/A speed=15.3x    frame=20676 fps=368 q=-0.0 size=N/A time=00:14:22.36 bitrate=N/A speed=15.3x    frame=20875 fps=368 q=-0.0 size=N/A time=00:14:30.66 bitrate=N/A speed=15.3x    frame=21069 fps=368 q=-0.0 size=N/A time=00:14:38.75 bitrate=N/A speed=15.3x    frame=21262 fps=368 q=-0.0 size=N/A time=00:14:46.80 bitrate=N/A speed=15.3x    frame=21465 fps=368 q=-0.0 size=N/A time=00:14:55.26 bitrate=N/A speed=15.4x    frame=21657 fps=368 q=-0.0 size=N/A time=00:15:03.27 bitrate=N/A speed=15.4x    frame=21857 fps=368 q=-0.0 size=N/A time=00:15:11.61 bitrate=N/A speed=15.4x    frame=22049 fps=368 q=-0.0 size=N/A time=00:15:19.62 bitrate=N/A speed=15.4x    frame=22245 fps=369 q=-0.0 size=N/A time=00:15:27.80 bitrate=N/A speed=15.4x    frame=22444 fps=369 q=-0.0 size=N/A time=00:15:36.10 bitrate=N/A speed=15.4x    frame=22641 fps=369 q=-0.0 size=N/A time=00:15:44.31 bitrate=N/A speed=15.4x    frame=22833 fps=369 q=-0.0 size=N/A time=00:15:52.32 bitrate=N/A speed=15.4x    frame=23027 fps=369 q=-0.0 size=N/A time=00:16:00.41 bitrate=N/A speed=15.4x    frame=23228 fps=369 q=-0.0 size=N/A time=00:16:08.80 bitrate=N/A speed=15.4x    frame=23425 fps=369 q=-0.0 size=N/A time=00:16:17.01 bitrate=N/A speed=15.4x    frame=23620 fps=369 q=-0.0 size=N/A time=00:16:25.15 bitrate=N/A speed=15.4x    frame=23817 fps=369 q=-0.0 size=N/A time=00:16:33.36 bitrate=N/A speed=15.4x    frame=24019 fps=369 q=-0.0 size=N/A time=00:16:41.79 bitrate=N/A speed=15.4x    frame=24213 fps=369 q=-0.0 size=N/A time=00:16:49.88 bitrate=N/A speed=15.4x    frame=24400 fps=369 q=-0.0 size=N/A time=00:16:57.68 bitrate=N/A speed=15.4x    frame=24607 fps=370 q=-0.0 size=N/A time=00:17:06.31 bitrate=N/A speed=15.4x    frame=24795 fps=370 q=-0.0 size=N/A time=00:17:14.15 bitrate=N/A speed=15.4x    frame=24990 fps=370 q=-0.0 size=N/A time=00:17:22.29 bitrate=N/A speed=15.4x    frame=25190 fps=370 q=-0.0 size=N/A time=00:17:30.63 bitrate=N/A speed=15.4x    frame=25392 fps=370 q=-0.0 size=N/A time=00:17:39.05 bitrate=N/A speed=15.4x    frame=25584 fps=370 q=-0.0 size=N/A time=00:17:47.06 bitrate=N/A speed=15.4x    frame=25774 fps=370 q=-0.0 size=N/A time=00:17:54.99 bitrate=N/A speed=15.4x    frame=25969 fps=370 q=-0.0 size=N/A time=00:18:03.12 bitrate=N/A speed=15.4x    frame=26169 fps=370 q=-0.0 size=N/A time=00:18:11.46 bitrate=N/A speed=15.4x    frame=26369 fps=370 q=-0.0 size=N/A time=00:18:19.80 bitrate=N/A speed=15.4x    frame=26559 fps=370 q=-0.0 size=N/A time=00:18:27.73 bitrate=N/A speed=15.4x    frame=26765 fps=370 q=-0.0 size=N/A time=00:18:36.32 bitrate=N/A speed=15.5x    frame=26953 fps=370 q=-0.0 size=N/A time=00:18:44.16 bitrate=N/A speed=15.5x    frame=27139 fps=370 q=-0.0 size=N/A time=00:18:51.92 bitrate=N/A speed=15.4x    frame=27331 fps=370 q=-0.0 size=N/A time=00:18:59.93 bitrate=N/A speed=15.4x    frame=27516 fps=370 q=-0.0 size=N/A time=00:19:07.64 bitrate=N/A speed=15.4x    frame=27711 fps=370 q=-0.0 size=N/A time=00:19:15.77 bitrate=N/A speed=15.4x    frame=27907 fps=370 q=-0.0 size=N/A time=00:19:23.95 bitrate=N/A speed=15.4x    frame=28094 fps=370 q=-0.0 size=N/A time=00:19:31.75 bitrate=N/A speed=15.4x    frame=28287 fps=370 q=-0.0 size=N/A time=00:19:39.80 bitrate=N/A speed=15.4x    frame=28479 fps=370 q=-0.0 size=N/A time=00:19:47.81 bitrate=N/A speed=15.4x    frame=28681 fps=370 q=-0.0 size=N/A time=00:19:56.23 bitrate=N/A speed=15.5x    frame=28858 fps=370 q=-0.0 size=N/A time=00:20:03.61 bitrate=N/A speed=15.4x    frame=29037 fps=370 q=-0.0 size=N/A time=00:20:11.08 bitrate=N/A speed=15.4x    frame=29218 fps=370 q=-0.0 size=N/A time=00:20:18.63 bitrate=N/A speed=15.4x    frame=29407 fps=370 q=-0.0 size=N/A time=00:20:26.51 bitrate=N/A speed=15.4x    frame=29582 fps=370 q=-0.0 size=N/A time=00:20:33.81 bitrate=N/A speed=15.4x    frame=29761 fps=370 q=-0.0 size=N/A time=00:20:41.28 bitrate=N/A speed=15.4x    frame=29943 fps=370 q=-0.0 size=N/A time=00:20:48.87 bitrate=N/A speed=15.4x    frame=30117 fps=369 q=-0.0 size=N/A time=00:20:56.12 bitrate=N/A speed=15.4x    frame=30302 fps=369 q=-0.0 size=N/A time=00:21:03.84 bitrate=N/A speed=15.4x    frame=30495 fps=369 q=-0.0 size=N/A time=00:21:11.89 bitrate=N/A speed=15.4x    frame=30690 fps=369 q=-0.0 size=N/A time=00:21:20.02 bitrate=N/A speed=15.4x    frame=30894 fps=370 q=-0.0 size=N/A time=00:21:28.53 bitrate=N/A speed=15.4x    frame=31076 fps=369 q=-0.0 size=N/A time=00:21:36.12 bitrate=N/A speed=15.4x    frame=31267 fps=369 q=-0.0 size=N/A time=00:21:44.09 bitrate=N/A speed=15.4x    frame=31468 fps=370 q=-0.0 size=N/A time=00:21:52.47 bitrate=N/A speed=15.4x    frame=31663 fps=370 q=-0.0 size=N/A time=00:22:00.61 bitrate=N/A speed=15.4x    frame=31851 fps=370 q=-0.0 size=N/A time=00:22:08.45 bitrate=N/A speed=15.4x    frame=32037 fps=370 q=-0.0 size=N/A time=00:22:16.20 bitrate=N/A speed=15.4x    frame=32232 fps=370 q=-0.0 size=N/A time=00:22:24.34 bitrate=N/A speed=15.4x    frame=32414 fps=370 q=-0.0 size=N/A time=00:22:31.93 bitrate=N/A speed=15.4x    frame=32623 fps=370 q=-0.0 size=N/A time=00:22:40.65 bitrate=N/A speed=15.4x    frame=32774 fps=369 q=-0.0 size=N/A time=00:22:46.94 bitrate=N/A speed=15.4x    frame=32949 fps=369 q=-0.0 size=N/A time=00:22:54.24 bitrate=N/A speed=15.4x    frame=33128 fps=369 q=-0.0 size=N/A time=00:23:01.71 bitrate=N/A speed=15.4x    frame=33321 fps=369 q=-0.0 size=N/A time=00:23:09.76 bitrate=N/A speed=15.4x    frame=33500 fps=369 q=-0.0 size=N/A time=00:23:17.22 bitrate=N/A speed=15.4x    frame=33659 fps=369 q=-0.0 size=N/A time=00:23:23.86 bitrate=N/A speed=15.4x    frame=33805 fps=368 q=-0.0 size=N/A time=00:23:29.95 bitrate=N/A speed=15.4x    frame=33945 fps=367 q=-0.0 size=N/A time=00:23:35.78 bitrate=N/A speed=15.3x    frame=34124 fps=367 q=-0.0 size=N/A time=00:23:43.25 bitrate=N/A speed=15.3x    frame=34289 fps=367 q=-0.0 size=N/A time=00:23:50.13 bitrate=N/A speed=15.3x    frame=34426 fps=367 q=-0.0 size=N/A time=00:23:55.85 bitrate=N/A speed=15.3x    frame=34607 fps=366 q=-0.0 size=N/A time=00:24:03.40 bitrate=N/A speed=15.3x    [Parsed_ssim_16 @ 000002d8afd20b00] SSIM Y:0.993703 (22.008904) U:0.993986 (22.208255) V:0.993612 (21.946152) All:0.993735 (22.030899)
[out#0/null @ 000002d8a2828a00] video:14903KiB audio:271276KiB subtitle:0KiB other streams:0KiB global headers:0KiB muxing overhead: unknown
frame=34683 fps=366 q=-0.0 Lsize=N/A time=00:24:06.57 bitrate=N/A speed=15.3x    
